<?xml version="1.0" standalone="no"?>
<!DOCTYPE svg PUBLIC "-//W3C//DTD SVG 20010904//EN"
 "http://www.w3.org/TR/2001/REC-SVG-20010904/DTD/svg10.dtd">
<svg version="1.0" xmlns="http://www.w3.org/2000/svg"
 width="1500.000000pt" height="1500.000000pt" viewBox="0 0 1500.000000 1500.000000"
 preserveAspectRatio="xMidYMid meet">
<metadata>
Created by potrace 1.14, written by Peter Selinger 2001-2017
</metadata>
<g transform="translate(0.000000,1500.000000) scale(0.100000,-0.100000)"
fill="#000000" stroke="none">
<path d="M7005 14274 c-22 -2 -107 -8 -190 -15 -552 -40 -1208 -183 -1752
-380 -832 -302 -1527 -709 -2213 -1295 -157 -134 -539 -518 -686 -689 -832
-972 -1370 -2118 -1578 -3360 -59 -352 -85 -638 -93 -1015 -16 -804 102 -1563
366 -2340 196 -579 478 -1140 770 -1535 87 -117 116 -164 113 -180 -5 -30 5
-47 116 -200 221 -302 452 -563 782 -879 165 -159 293 -269 470 -406 74 -57
169 -131 210 -163 41 -33 140 -103 220 -157 1419 -947 3138 -1337 4820 -1094
1175 169 2296 645 3235 1373 228 176 427 352 646 571 554 553 980 1145 1314
1825 386 786 608 1577 692 2465 24 261 24 928 0 1190 -117 1248 -542 2398
-1256 3401 -407 571 -902 1079 -1467 1504 -1077 810 -2360 1285 -3718 1374
-141 10 -696 13 -801 5z m279 -147 c28 -28 49 -65 65 -111 l24 -69 -40 -36
c-22 -20 -77 -67 -123 -106 -46 -38 -141 -121 -210 -185 -173 -159 -275 -250
-490 -437 -102 -88 -194 -170 -204 -182 -21 -23 -46 -28 -46 -8 0 14 66 108
145 207 29 36 94 124 145 195 152 212 585 739 628 765 35 20 65 11 106 -33z
m-883 -112 c94 -62 125 -130 116 -262 -4 -71 -11 -96 -44 -166 -45 -94 -165
-274 -252 -380 -72 -88 -378 -390 -519 -513 -56 -49 -149 -124 -205 -167 -56
-43 -131 -102 -167 -131 -36 -28 -111 -85 -168 -125 -57 -40 -101 -75 -99 -77
14 -15 357 43 701 118 l239 52 19 -24 c39 -49 9 -157 -99 -355 -146 -270 -249
-455 -285 -517 -22 -36 -53 -99 -70 -140 -34 -82 -44 -97 -57 -82 -5 5 1 51
15 109 26 112 32 205 12 205 -43 0 -260 -23 -293 -30 -53 -12 -275 -39 -402
-50 -57 -4 -126 -16 -155 -26 -50 -18 -53 -22 -86 -94 -37 -82 -94 -229 -149
-385 -19 -55 -70 -173 -113 -261 l-79 -162 -113 -77 c-167 -115 -214 -151
-312 -240 -49 -44 -121 -108 -160 -141 -73 -63 -284 -289 -414 -442 -83 -98
-111 -150 -112 -205 0 -69 21 -92 133 -148 56 -28 165 -87 242 -129 102 -57
178 -91 280 -125 330 -108 749 -122 1062 -35 250 69 446 239 558 484 37 80 86
234 111 346 25 119 31 415 9 534 -9 52 -15 101 -12 108 7 19 36 -55 64 -162
22 -87 24 -109 20 -260 -5 -189 -17 -254 -88 -490 -111 -363 -218 -646 -290
-766 -18 -29 -107 -133 -196 -230 -90 -96 -180 -196 -201 -222 -64 -81 -211
-249 -352 -402 -74 -80 -181 -198 -237 -261 -56 -62 -128 -140 -160 -172 l-59
-58 -77 84 c-115 127 -335 270 -478 311 -142 41 -354 35 -468 -14 -69 -30
-195 -170 -173 -192 5 -5 64 -10 133 -11 104 -3 138 -8 209 -31 131 -43 236
-92 316 -147 64 -45 133 -114 123 -124 -2 -2 -83 14 -179 35 -96 20 -206 43
-245 49 -151 27 -224 44 -325 78 -309 105 -694 300 -945 477 -205 145 -321
257 -397 386 -27 47 -65 108 -83 135 -49 76 -143 246 -157 285 -6 19 -20 49
-30 67 -13 22 -18 48 -17 85 2 36 -3 62 -14 78 -89 136 -47 625 89 1045 73
225 117 331 235 566 118 237 209 387 381 629 58 82 231 303 332 425 120 143
503 530 671 676 288 251 701 557 1005 744 52 32 136 85 187 117 86 55 494 271
613 325 209 95 652 263 695 263 36 0 118 -65 245 -196 297 -306 316 -324 337
-324 33 0 60 14 152 79 170 120 301 318 301 454 0 100 -61 176 -163 203 -72
19 -106 17 -152 -7 l-40 -21 19 21 c28 31 71 41 156 36 57 -4 83 -11 111 -30z
m2898 -75 c175 -29 348 -188 367 -337 8 -56 -7 -49 -24 12 -16 55 -70 135
-111 162 -48 32 -153 63 -215 63 -61 0 -124 -27 -154 -65 -20 -25 -22 -36 -16
-94 3 -36 12 -79 19 -96 12 -25 129 -406 220 -708 28 -94 35 -101 113 -114 38
-7 128 20 184 54 47 29 121 129 150 203 11 30 24 87 27 125 l6 70 27 -50 c53
-102 160 -172 361 -235 50 -16 127 -36 170 -46 67 -14 84 -22 120 -58 61 -59
189 -271 294 -486 102 -212 143 -289 190 -369 25 -40 74 -141 109 -224 36 -84
73 -166 83 -183 25 -41 120 -255 161 -359 17 -44 45 -107 62 -140 17 -33 50
-112 74 -175 23 -63 65 -171 94 -240 81 -199 188 -483 239 -640 26 -80 80
-235 118 -345 143 -403 170 -528 160 -725 -9 -182 -84 -426 -214 -700 -31 -63
-82 -180 -115 -260 -92 -225 -314 -646 -443 -842 -186 -281 -404 -551 -664
-818 -125 -128 -170 -169 -171 -154 0 11 24 52 53 91 255 344 358 557 544
1123 46 142 126 467 152 620 40 236 38 626 -4 727 -9 21 -23 85 -31 142 -8 57
-16 107 -19 110 -2 4 -25 120 -50 257 -57 312 -93 467 -214 914 -21 80 -44
170 -51 200 -6 30 -34 125 -60 210 -27 85 -56 184 -65 220 -19 73 -128 412
-182 565 -19 55 -77 219 -128 365 -153 438 -220 576 -336 693 -88 88 -127 109
-312 163 -67 19 -180 55 -250 79 -104 35 -127 40 -123 27 16 -50 289 -960 526
-1752 149 -498 272 -914 272 -925 1 -11 18 -38 38 -60 155 -169 390 -509 390
-563 0 -27 -103 -205 -225 -392 -90 -137 -176 -282 -232 -394 -19 -39 -66
-116 -103 -171 -100 -149 -160 -241 -219 -332 -30 -46 -57 -83 -61 -83 -4 0
-15 9 -25 20 -18 20 -17 23 23 108 51 109 68 218 58 374 -9 143 -42 246 -158
476 -97 193 -135 247 -226 314 -50 37 -54 43 -49 73 3 17 21 57 41 88 20 31
50 94 67 139 28 75 30 87 20 126 -6 23 -11 55 -11 71 0 16 -14 90 -30 163 -57
251 -138 627 -179 833 -11 55 -40 197 -65 315 -25 118 -59 289 -76 380 -17 91
-55 293 -85 450 -31 157 -67 346 -81 420 -30 155 -118 534 -169 725 -19 72
-48 185 -64 251 -68 272 -119 353 -293 469 -56 37 -71 55 -45 55 6 0 55 -19
107 -41 63 -28 115 -43 155 -46 l61 -5 53 61 c30 34 72 72 95 83 83 44 217 58
345 38z m-1373 -617 c-4 -16 -9 -47 -13 -71 -5 -39 -3 -45 30 -76 26 -24 55
-38 104 -50 161 -41 381 -107 503 -152 64 -23 106 -25 169 -8 42 12 65 14 72
7 7 -7 4 -40 -8 -104 -24 -125 -24 -452 0 -625 22 -159 113 -649 151 -814 14
-61 56 -287 92 -495 16 -89 59 -310 135 -685 22 -107 48 -224 59 -260 11 -36
33 -130 49 -210 37 -181 72 -338 122 -550 47 -205 64 -304 84 -495 13 -132 38
-265 117 -610 28 -126 35 -407 14 -612 -18 -177 -27 -202 -161 -433 -103 -178
-163 -251 -373 -454 l-164 -158 -38 78 c-65 134 -199 260 -267 252 -27 -3 -28
-5 -45 -108 -27 -159 -113 -434 -174 -551 -10 -20 -51 -46 -152 -96 -136 -68
-139 -69 -163 -52 -13 10 -86 34 -162 53 -76 20 -167 49 -202 65 l-63 29 -7
54 c-4 35 0 105 14 201 12 81 21 152 21 157 0 12 -107 60 -134 60 -28 0 -64
-39 -106 -115 -83 -151 -167 -295 -201 -345 -20 -30 -64 -101 -96 -156 l-59
-102 -37 57 c-48 74 -166 195 -300 306 -115 95 -267 181 -381 216 -131 40
-129 75 18 249 125 150 277 364 509 716 246 373 332 509 346 546 14 37 -8 116
-58 217 -33 64 -56 93 -121 152 -132 120 -313 225 -407 237 -31 4 -58 12 -60
17 -2 6 23 37 54 70 46 48 66 80 100 160 50 119 67 182 88 335 9 63 20 135 25
160 5 25 16 95 25 155 8 61 22 153 31 205 8 52 26 172 39 265 13 94 33 231 44
305 60 424 89 689 101 925 6 110 17 328 25 485 19 364 19 517 -1 660 -8 63
-16 129 -17 146 -1 29 24 57 260 290 143 143 289 291 324 329 105 116 193 216
207 236 7 11 20 19 29 19 12 0 14 -6 9 -27z m2904 -90 c53 -21 104 -49 122
-67 34 -34 136 -166 216 -280 59 -85 78 -95 267 -143 55 -14 104 -29 110 -34
5 -5 23 -9 40 -9 17 0 44 -10 59 -22 146 -115 216 -178 390 -352 183 -183 254
-266 227 -266 -5 0 -38 25 -73 55 -106 93 -202 134 -389 165 -37 7 -78 10 -93
8 l-26 -3 35 -53 c100 -148 673 -1089 1236 -2032 170 -283 312 -518 316 -523
4 -4 67 -36 138 -71 72 -36 168 -90 214 -121 46 -30 96 -62 111 -70 15 -8 53
-37 84 -66 66 -60 69 -78 30 -172 -15 -34 -35 -87 -45 -117 -9 -30 -29 -86
-44 -125 -15 -38 -36 -95 -46 -125 -22 -61 -42 -104 -150 -325 -148 -304 -218
-428 -269 -477 -51 -50 -79 -63 -61 -29 6 10 8 21 6 23 -3 3 5 27 16 54 39 86
28 224 -23 296 -55 79 -319 241 -733 448 l-246 124 -15 55 c-8 31 -28 101 -44
156 -17 56 -30 106 -30 112 0 7 19 33 42 60 68 78 98 154 98 245 0 158 -44
346 -130 558 -99 243 -128 308 -243 549 -68 141 -146 303 -172 361 -27 58
-106 227 -178 375 -71 149 -139 297 -152 330 -13 33 -45 110 -70 170 -26 61
-56 133 -66 160 -11 28 -33 75 -49 105 -15 30 -47 98 -70 150 -23 52 -49 103
-58 112 -12 11 -38 17 -87 20 l-70 3 3 -44 c3 -28 0 -41 -6 -37 -10 6 -63 103
-194 351 -31 61 -57 118 -58 129 0 17 5 18 55 12 50 -6 55 -4 55 13 0 25 -27
87 -106 245 -71 142 -72 156 -4 156 21 0 80 -16 130 -37z m-4044 -84 c-14 -24
-26 -57 -26 -74 0 -42 62 -80 155 -95 108 -17 106 -11 57 -207 -53 -212 -57
-240 -77 -453 -21 -229 -42 -401 -65 -530 -51 -281 -125 -765 -140 -915 -7
-60 -25 -207 -41 -325 -16 -118 -34 -258 -39 -310 -14 -129 -47 -328 -70 -425
-30 -126 -61 -353 -54 -393 16 -98 123 -401 155 -442 19 -24 20 -24 34 -6 32
42 61 -15 33 -67 -6 -12 -41 -59 -77 -104 -36 -45 -84 -112 -106 -148 -22 -36
-61 -98 -86 -138 -25 -40 -76 -121 -113 -182 -36 -60 -87 -141 -111 -180 -25
-38 -58 -91 -73 -118 -30 -52 -222 -329 -292 -421 -25 -32 -55 -72 -66 -88
-12 -16 -45 -54 -74 -84 -45 -47 -57 -54 -79 -49 -28 6 -71 51 -71 74 0 7 11
26 25 43 39 46 59 128 51 210 -16 157 -314 915 -376 953 -6 3 -10 13 -10 21 0
16 86 124 223 279 49 55 109 132 134 170 25 39 58 88 73 110 34 51 51 97 94
267 59 229 119 521 150 728 110 740 233 1509 262 1635 37 168 74 381 74 432 0
64 -6 77 -76 160 -34 39 -54 73 -54 88 0 33 79 125 210 243 58 53 181 167 273
255 147 139 171 157 183 145 13 -13 12 -20 -10 -59z m-5230 -5001 c84 -91 138
-186 263 -463 161 -355 244 -440 530 -539 194 -68 667 -190 836 -217 183 -29
475 -16 553 25 45 23 66 87 60 177 -11 151 -158 364 -315 456 -131 77 -252
133 -291 133 -72 0 -112 11 -112 31 0 23 54 39 134 39 203 0 483 -139 618
-307 141 -176 192 -284 278 -588 36 -129 49 -203 56 -325 6 -114 6 -116 -30
-223 -20 -59 -36 -113 -36 -119 0 -6 -9 -30 -19 -52 -10 -23 -43 -95 -72 -160
-43 -97 -59 -121 -81 -130 -25 -9 -48 -42 -48 -70 0 -8 26 -20 63 -30 84 -24
173 -52 292 -93 55 -19 142 -48 192 -63 51 -16 137 -44 190 -63 54 -19 148
-50 208 -68 145 -44 169 -68 235 -221 53 -126 120 -265 410 -858 515 -1054
693 -1428 745 -1565 13 -36 31 -76 40 -88 36 -52 7 -193 -62 -297 -45 -68
-352 -490 -484 -665 -96 -127 -295 -345 -314 -345 -6 0 -16 4 -24 9 -11 7 -9
15 12 42 46 62 62 181 31 240 -54 105 -265 267 -649 499 -160 97 -642 346
-745 386 -30 12 -86 35 -125 52 -38 17 -135 51 -215 76 -133 42 -157 46 -286
52 -130 6 -144 5 -190 -15 -59 -27 -131 -94 -139 -132 -4 -16 0 -39 9 -57 16
-31 134 -125 351 -277 189 -133 369 -236 693 -396 208 -102 373 -169 419 -169
11 0 28 -7 39 -15 47 -36 -48 -40 -220 -9 -136 24 -432 153 -603 261 -48 31
-126 79 -173 106 -159 94 -572 397 -700 512 -30 28 -86 77 -125 110 -176 149
-451 437 -540 565 -33 47 -75 106 -95 132 -19 26 -44 64 -55 85 -11 21 -37 60
-58 87 l-39 50 29 20 c32 24 120 116 142 151 49 73 334 385 354 385 4 0 18
-12 31 -26 31 -37 107 -44 154 -15 27 18 32 27 34 63 5 125 -7 152 -133 305
-148 178 -330 353 -614 588 -186 153 -648 517 -714 561 -146 99 -257 166 -344
207 -100 49 -137 76 -137 101 0 14 31 64 161 257 92 138 152 250 397 744 239
484 259 551 249 830 -5 143 -25 250 -57 307 -12 21 -13 48 -2 48 4 0 22 -15
38 -32z m12098 -158 c106 -9 129 -14 215 -52 113 -50 155 -85 222 -187 65 -99
87 -173 95 -319 18 -317 -91 -607 -362 -961 -31 -40 -87 -117 -123 -170 -36
-54 -102 -143 -146 -198 -44 -55 -114 -149 -155 -208 -101 -144 -215 -287
-243 -302 -27 -15 -106 -17 -141 -3 -39 14 -31 -1 19 -40 25 -19 74 -73 110
-120 36 -47 94 -121 130 -165 131 -161 205 -291 186 -330 -5 -11 -17 -40 -26
-65 -9 -25 -25 -58 -35 -75 -10 -16 -51 -95 -91 -175 -103 -208 -216 -410
-290 -522 -35 -53 -86 -132 -112 -175 -52 -83 -111 -165 -275 -376 -202 -261
-226 -291 -287 -356 -33 -36 -95 -106 -137 -156 -135 -158 -587 -607 -768
-762 -79 -67 -249 -187 -397 -279 -52 -32 -241 -134 -418 -224 -230 -117 -381
-178 -397 -162 -9 9 1 24 38 61 27 27 62 74 79 105 l30 55 -20 38 c-24 45
-111 103 -198 133 -126 43 -322 36 -452 -16 -141 -57 -255 -209 -255 -341 0
-124 49 -214 135 -250 62 -25 60 -48 -6 -67 -29 -9 -63 -13 -78 -10 -40 10
-100 73 -132 139 -75 156 -3 402 173 590 46 50 201 223 344 385 144 162 329
371 413 465 154 171 197 233 266 380 21 44 43 89 48 100 60 113 62 125 36 210
-15 50 -156 167 -218 181 -14 3 -61 17 -103 30 -42 13 -85 24 -95 24 -10 0
-33 9 -51 20 -18 11 -41 20 -51 20 -44 0 -49 37 -17 130 52 152 140 495 221
855 19 88 44 194 55 236 11 41 20 85 20 96 0 12 21 105 46 208 25 103 43 194
40 202 -10 25 91 142 284 333 98 96 217 220 265 275 49 55 175 192 280 305
106 113 219 237 251 275 32 39 79 95 104 125 25 30 75 93 110 140 35 47 96
123 135 170 104 125 267 337 309 402 42 66 62 84 53 46 -4 -14 -11 -56 -17
-94 -30 -207 -69 -303 -205 -514 -75 -115 -88 -140 -77 -140 6 0 12 -9 15 -19
3 -14 25 -25 74 -40 414 -123 1063 -207 1328 -171 249 34 440 132 513 263 16
28 45 78 65 111 53 85 85 194 93 308 10 150 -13 214 -109 297 -60 51 -87 65
-163 85 -234 61 -441 7 -809 -209 -162 -95 -352 -300 -448 -483 -38 -72 -57
-89 -57 -53 0 11 -4 23 -10 26 -27 16 12 136 88 271 77 136 115 184 265 334
199 200 342 292 530 345 94 27 126 28 291 15z m-7455 -258 c104 -108 227 -286
236 -343 11 -63 -12 -133 -64 -203 -26 -33 -67 -90 -91 -126 -58 -86 -267
-365 -345 -460 -34 -41 -86 -111 -116 -155 -198 -287 -328 -460 -615 -812 -43
-54 -104 -39 -104 25 0 57 121 354 251 617 68 138 139 287 158 330 57 131 141
305 189 389 24 44 116 223 204 398 88 175 172 331 188 348 37 40 65 38 109 -8z
m2487 -1057 c58 -40 139 -288 132 -405 l-3 -55 45 -8 c25 -5 122 -12 215 -17
94 -5 213 -13 265 -19 52 -5 163 -17 245 -26 196 -21 483 -62 565 -81 36 -9
79 -15 96 -15 44 1 62 -22 40 -51 -58 -81 -65 -96 -75 -168 -8 -62 -7 -84 5
-120 31 -89 20 -276 -26 -445 -30 -109 -69 -270 -89 -364 -19 -86 -93 -372
-156 -596 -18 -66 -50 -193 -69 -282 -36 -158 -60 -255 -172 -693 -103 -399
-114 -445 -114 -474 0 -16 23 -78 50 -137 28 -60 53 -122 56 -139 4 -17 11
-33 15 -36 19 -12 7 -49 -36 -107 -103 -140 -134 -180 -225 -283 -52 -59 -181
-198 -286 -308 -105 -111 -225 -239 -265 -285 -41 -47 -120 -134 -176 -194
-57 -60 -103 -112 -103 -116 0 -11 -269 -261 -280 -261 -21 0 -9 32 28 73 59
65 103 125 159 212 148 232 204 355 210 460 6 96 -13 130 -91 168 -53 26 -58
31 -53 55 2 15 151 607 329 1317 420 1669 391 1544 396 1696 4 112 2 131 -18
177 -12 28 -29 57 -38 65 -53 45 -502 98 -871 103 l-233 3 6 -61 c4 -34 12
-289 17 -567 8 -461 17 -707 49 -1331 6 -118 14 -325 18 -459 l8 -245 49 -40
c86 -70 152 -143 158 -176 9 -43 -34 -172 -95 -289 -121 -229 -356 -572 -546
-795 -37 -44 -88 -107 -113 -140 -57 -74 -336 -346 -355 -346 -25 0 -15 24 21
53 87 70 205 289 236 443 32 151 22 234 -38 342 -36 64 -67 101 -133 161 -47
43 -97 86 -112 95 -17 11 -28 27 -28 40 1 11 28 57 60 101 83 112 136 201 157
265 24 73 24 308 0 600 -30 370 -54 744 -67 1040 -10 210 -33 496 -46 565 -16
82 -67 225 -93 261 -17 22 -52 52 -78 66 -46 24 -81 37 -255 88 -107 32 -123
51 -123 143 0 71 2 75 106 292 59 121 146 285 193 365 48 80 138 250 201 377
97 195 119 234 140 239 54 14 68 -29 49 -149 -8 -45 -14 -112 -14 -149 0 -65
1 -68 35 -93 52 -40 209 -100 313 -120 129 -25 151 -41 184 -140 29 -88 52
-165 62 -207 4 -16 10 -28 15 -28 9 0 70 78 155 199 41 58 136 250 136 274 0
8 14 48 31 88 103 249 153 405 164 519 4 41 9 78 12 83 7 11 27 8 49 -8z
m-2659 -201 c7 -18 -18 -97 -48 -154 -59 -112 -83 -247 -56 -312 21 -50 101
-102 197 -127 41 -11 154 -27 250 -36 229 -21 218 -18 240 -68 27 -59 25 -78
-20 -170 -43 -89 -62 -176 -49 -235 30 -148 85 -397 109 -497 15 -66 31 -136
35 -155 4 -19 22 -100 40 -180 18 -80 36 -167 40 -195 4 -27 25 -106 47 -175
21 -69 46 -161 54 -205 18 -93 141 -581 184 -729 16 -56 34 -139 39 -186 6
-46 27 -159 47 -250 20 -91 40 -183 43 -205 8 -47 106 -179 155 -210 17 -10
34 -23 37 -28 4 -5 12 -6 18 -3 15 10 -50 -132 -106 -229 -82 -143 -202 -302
-363 -480 -198 -219 -627 -590 -660 -570 -18 11 -11 32 17 50 135 89 261 286
271 424 4 58 1 77 -20 122 -14 30 -43 74 -65 99 -21 25 -50 61 -63 80 -13 19
-64 76 -112 127 -75 78 -88 96 -88 125 1 59 25 107 97 198 98 122 122 200 123
395 0 137 -25 245 -186 810 -105 364 -176 588 -324 1015 -56 162 -113 333
-126 379 -13 47 -33 95 -46 109 -37 40 -306 238 -370 272 -32 17 -63 28 -68
25 -6 -3 -19 -3 -30 0 -44 14 -13 138 56 222 23 29 86 117 138 195 53 79 128
186 166 238 74 99 247 356 270 400 40 76 81 130 100 130 11 0 23 -7 27 -16z"/>
<path d="M4476 13058 c-79 -152 -246 -492 -381 -776 -51 -105 -57 -126 -49
-150 9 -24 15 -27 54 -26 55 1 70 19 127 152 24 53 77 176 119 272 42 96 89
204 104 240 15 36 57 135 94 222 73 174 83 228 42 228 -22 0 -35 -20 -110
-162z"/>
<path d="M5127 13193 c-3 -10 -17 -50 -31 -90 -25 -68 -47 -141 -97 -323 -26
-98 -67 -236 -129 -440 -50 -164 -57 -200 -42 -200 28 0 102 35 133 63 21 17
63 52 94 77 169 132 535 484 535 515 0 8 -64 67 -142 132 -79 65 -181 155
-227 201 -47 45 -86 82 -87 82 -1 0 -4 -8 -7 -17z"/>
<path d="M4290 13078 c-58 -33 -134 -79 -170 -103 -36 -23 -105 -68 -155 -100
-167 -107 -285 -195 -439 -329 -104 -90 -309 -327 -412 -476 -232 -335 -435
-724 -507 -975 -34 -118 -42 -165 -68 -375 -18 -146 -20 -206 -15 -365 7 -229
29 -359 86 -492 22 -51 40 -96 40 -99 0 -14 73 -104 84 -104 6 0 27 30 45 68
48 96 786 1642 798 1670 6 14 -28 12 -147 -9 -65 -12 -290 -84 -340 -109 -36
-19 -74 -62 -90 -105 -5 -14 -15 -25 -21 -25 -8 0 -10 18 -5 64 11 107 43 212
93 304 38 71 70 109 168 207 189 189 367 298 563 346 51 12 99 27 106 33 7 6
90 173 184 371 94 198 205 425 246 505 42 80 76 148 76 153 0 13 -14 7 -120
-55z"/>
<path d="M3704 11433 c-16 -3 -42 -46 -107 -176 -202 -405 -431 -910 -537
-1182 -13 -33 -45 -112 -72 -175 -67 -156 -81 -204 -82 -283 -1 -63 1 -71 27
-93 36 -31 56 -30 94 4 46 41 104 170 213 473 21 59 69 178 108 265 38 88 86
200 107 249 21 50 109 235 196 413 179 362 214 463 177 500 -11 11 -78 14
-124 5z"/>
<path d="M7806 12398 c-4 -84 -11 -256 -16 -383 -4 -126 -13 -327 -19 -445 -6
-118 -16 -314 -22 -435 -12 -247 -37 -622 -44 -645 -9 -29 -46 -677 -46 -793
0 -118 0 -119 40 -202 32 -66 55 -96 112 -149 90 -83 178 -141 299 -197 83
-38 103 -43 155 -41 32 1 76 7 96 12 46 13 134 84 200 163 42 50 49 65 49 101
0 51 -32 291 -59 441 -20 109 -64 394 -76 490 -3 28 -17 105 -30 172 -14 67
-29 163 -35 215 -12 111 -30 218 -76 473 -56 304 -66 398 -71 615 -7 275 3
327 101 525 28 58 23 71 -33 81 -72 12 -248 66 -358 110 -170 67 -159 74 -167
-108z"/>
<path d="M8585 9194 c-62 -54 -102 -87 -215 -176 -145 -115 -994 -959 -1021
-1016 -20 -40 -20 -50 -11 -165 9 -113 14 -135 70 -290 87 -236 145 -331 282
-454 144 -130 279 -193 475 -226 90 -15 296 -13 356 3 103 28 124 44 168 125
47 88 80 198 88 297 8 97 -20 521 -56 853 -6 50 -17 223 -26 385 -25 471 -46
700 -64 700 -3 0 -24 -16 -46 -36z"/>
<path d="M1850 6433 c0 -30 110 -219 173 -298 88 -109 266 -280 417 -400 69
-55 173 -144 232 -198 110 -102 196 -167 423 -321 72 -49 141 -99 156 -112 14
-13 32 -24 40 -24 18 0 60 43 120 125 99 132 345 543 333 555 -5 4 -36 17 -69
28 -33 11 -114 40 -180 65 -66 25 -196 74 -290 107 -93 34 -244 89 -335 122
-91 32 -208 74 -260 93 -125 44 -312 111 -485 175 -265 98 -275 101 -275 83z"/>
<path d="M3517 4958 c-20 -24 -61 -77 -90 -118 -150 -211 -246 -341 -296 -399
-109 -127 -256 -276 -287 -293 -39 -21 -172 -170 -180 -202 -7 -30 18 -85 54
-118 20 -18 126 -58 384 -143 295 -98 360 -116 372 -106 9 7 45 59 82 114 130
199 303 407 472 569 141 135 217 189 364 261 132 64 141 73 122 122 -14 35
-229 125 -564 236 -174 57 -237 76 -380 115 -10 2 -31 -13 -53 -38z"/>
<path d="M4430 4427 c-251 -110 -574 -421 -735 -710 -36 -64 -43 -132 -18
-188 20 -44 21 -44 124 -77 154 -50 152 -51 203 88 24 63 53 135 66 160 94
186 331 398 556 495 41 18 77 35 80 38 8 8 -65 146 -99 189 -39 49 -74 50
-177 5z"/>
<path d="M4659 4115 c-129 -56 -290 -173 -390 -283 -75 -83 -166 -226 -180
-284 -15 -66 -6 -143 23 -180 26 -33 88 -62 398 -188 113 -45 312 -133 442
-195 183 -87 238 -109 242 -98 3 8 6 70 6 138 0 107 -4 141 -34 257 -34 136
-141 421 -202 538 -19 36 -67 121 -108 190 -69 118 -75 125 -107 127 -19 2
-59 -8 -90 -22z"/>
<path d="M11657 5729 c-21 -22 -45 -65 -66 -119 -18 -47 -60 -137 -93 -200
-34 -63 -107 -207 -163 -320 -56 -113 -129 -252 -162 -310 -85 -149 -96 -181
-91 -282 4 -106 30 -161 93 -201 24 -16 59 -31 78 -34 81 -13 246 57 368 156
108 86 452 445 570 592 59 74 365 423 448 511 35 37 62 68 60 69 -9 2 -59 9
-157 24 -56 8 -139 24 -183 35 -74 19 -507 94 -621 107 -44 5 -50 3 -81 -28z"/>
<path d="M12064 4461 c-99 -24 -220 -122 -621 -502 -336 -319 -401 -378 -456
-414 -24 -15 -690 -759 -711 -793 -5 -8 7 -5 29 7 20 11 69 25 108 31 40 6
100 15 133 20 34 6 109 10 167 10 86 0 121 -5 183 -25 42 -14 83 -25 91 -25 8
0 48 -12 90 -26 71 -25 75 -25 94 -8 10 9 19 27 19 38 0 23 44 88 133 195 28
35 68 85 87 111 19 26 55 75 80 108 25 34 80 108 123 164 166 218 199 263 238
327 22 36 60 93 84 126 25 33 70 98 101 144 31 46 99 140 150 209 57 75 94
133 94 148 0 28 -79 121 -124 147 -33 18 -44 19 -92 8z"/>
</g>
</svg>
